# xmcd
#
# Track frame offsets:
# 150
# 13855
# 26460
# 42045
# 55222
# 69117
# 80915
# 97507
# 111035
# 121577
#
# Disc length: 1795 seconds
#
# Revision: 0
# Processed by: cddbd v1.4PL0 Copyright (c) Steve Scherf et al.
# Submitted via: Axialis_AX_CDPlayer 2.6
#
DISCID=6b07010a
DTITLE=Charlie Rich - Love Songs
DYEAR=1900
DGENRE=
TTITLE0=Everytime You Touch Me (I Get High)
TTITLE1=A Very Special Love Song
TTITLE2=Night Talk
TTITLE3=Beautiful Woman
TTITLE4=Nice 'N' Easy
TTITLE5=Why Don't We Go Somewhere And Love
TTITLE6=Life's Little Ups And Downs
TTITLE7=That's What Love Is
TTITLE8=A Satisfied Man
TTITLE9=Behind Closed Doors
EXTD=SKU 0 7464-62181-2 9
EXTT0=
EXTT1=
EXTT2=
EXTT3=
EXTT4=
EXTT5=
EXTT6=
EXTT7=
EXTT8=
EXTT9=
PLAYORDER=
